<svg width="126" height="130" viewBox="0 0 126 130" fill="none" xmlns="http://www.w3.org/2000/svg">
<circle cx="63" cy="67" r="63" fill="#F9FFF6"/>
<g clip-path="url(#clip0_138_17)">
<path d="M60.4711 24.5C60.4711 24.5 64.1178 24.4558 68 25.6072C71.8822 26.7585 74.5595 29.002 74.5595 29.002C74.5595 29.002 75.6285 30.8776 76.9969 33.8241C78.6483 37.3802 81.3202 42.2648 84.8915 46.0577C91.3377 52.904 101.785 56.1937 101.785 56.1937L99.7884 58.1243L86.3194 63.2125C86.3194 63.2125 62.154 58.5231 44.8157 71.2378C27.4775 83.9525 39.1361 119.554 39.1361 119.554C39.1361 119.554 12.3197 104.527 13.0132 71.2378C13.7067 37.9484 41.3233 25.6072 41.3233 25.6072C41.3233 25.6072 44.5211 16.8404 49.3079 10.4385C54.0948 4.03669 60.4711 0 60.4711 0V22.7482L55.3006 24.9751L60.4711 24.5Z" fill="url(#paint0_linear_138_17)"/>
<path d="M66.3176 67.2934C66.3176 67.2934 62.2012 68.9279 62.1375 73.4584C62.0738 77.9889 69.3794 85.6255 83.2945 85.6255C97.2095 85.6255 121.978 79.3858 121.978 79.3858C121.978 79.3858 116.466 109.972 88.5462 121.709C60.6268 133.446 36.9762 118.152 36.9762 118.152L28.0845 89.1663L47.6456 64.8038L63.2945 62.3142L66.3176 67.2934Z" fill="url(#paint1_linear_138_17)"/>
<path d="M34.3085 94.5012C34.3085 94.5012 49.2014 107.349 71.1189 103.57C93.0364 99.7916 121.978 79.3853 121.978 79.3853C121.978 79.3853 116.466 109.972 88.5462 121.708C60.6268 133.445 39.1174 119.534 39.1174 119.534L28.0845 89.1667L34.3085 94.5012Z" fill="url(#paint2_linear_138_17)"/>
<path d="M39.1461 119.538C39.1461 119.538 38.8919 103.259 44.6194 91.4379C50.3469 79.6173 63.1124 76.911 63.1124 76.911C63.1124 76.911 61.8724 75.5513 62.2269 72.4317C62.6289 68.8944 66.5333 67.1408 66.5333 67.1408C66.5333 67.1408 52.4717 66.56 41.3232 79.3174C30.1747 92.0748 39.1461 119.538 39.1461 119.538Z" fill="black" fill-opacity="0.17"/>
<path d="M86.1914 58.6285C98.77 59.2524 101.785 56.1935 101.785 56.1935L89.515 68.6413C89.515 68.6413 63.109 61.1065 45.8406 74.7054C28.5722 88.3043 39.1365 119.554 39.1365 119.554C39.1365 119.554 12.0508 87.9018 32.2959 65.0579C52.541 42.2139 73.6128 58.0051 86.1914 58.6285Z" fill="#EEEEEE"/>
<path d="M77.6764 89.2826C77.5976 87.6357 78.5374 86.1091 80.0434 85.4379L88.6084 81.6203C89.5047 81.2208 90.5166 81.1647 91.4516 81.4627L100.868 84.464C102.46 84.9714 103.569 86.4149 103.649 88.0839L105.381 124.263C105.486 126.47 103.783 128.344 101.577 128.45L83.5971 129.311C81.3905 129.416 79.5161 127.713 79.4104 125.507L77.6764 89.2826Z" fill="#EEEEEE"/>
<path d="M90.996 113.721L90.0509 95.5638L91.2141 95.5033L92.1592 113.661L90.996 113.721ZM93.4481 101.397C93.3616 100.827 93.095 100.396 92.6482 100.101C92.2014 99.8068 91.6092 99.6787 90.8716 99.7171C90.3704 99.7432 89.9509 99.8362 89.6131 99.996C89.275 100.151 89.0202 100.356 88.8486 100.612C88.6817 100.867 88.6064 101.151 88.6226 101.463C88.6267 101.723 88.6929 101.948 88.8212 102.135C88.9542 102.323 89.1308 102.482 89.351 102.613C89.5709 102.739 89.8231 102.846 90.1075 102.936C90.3916 103.021 90.6939 103.09 91.0144 103.145L92.3357 103.389C92.9767 103.498 93.5682 103.657 94.1101 103.865C94.6519 104.074 95.1257 104.341 95.5314 104.666C95.9371 104.991 96.2586 105.382 96.4957 105.839C96.7376 106.296 96.8766 106.827 96.9129 107.432C96.9544 108.321 96.7676 109.104 96.3523 109.78C95.9416 110.451 95.3247 110.988 94.5018 111.391C93.6833 111.789 92.683 112.019 91.5009 112.08C90.3282 112.141 89.2975 112.015 88.4088 111.701C87.5248 111.387 86.8209 110.89 86.2972 110.211C85.778 109.526 85.4794 108.662 85.4013 107.619L88.3732 107.464C88.4316 107.949 88.5923 108.349 88.8551 108.662C89.1225 108.971 89.4685 109.197 89.8932 109.341C90.3224 109.48 90.8018 109.535 91.3314 109.508C91.8515 109.481 92.2992 109.381 92.6743 109.21C93.0541 109.039 93.3434 108.813 93.5422 108.532C93.741 108.251 93.8312 107.936 93.813 107.586C93.796 107.26 93.6848 106.991 93.4794 106.779C93.2787 106.566 92.9899 106.392 92.6129 106.255C92.2407 106.118 91.7865 105.999 91.2502 105.899L89.6479 105.584C88.4077 105.35 87.4165 104.935 86.6743 104.338C85.932 103.741 85.5353 102.906 85.4842 101.832C85.4337 100.953 85.6277 100.173 86.0664 99.4908C86.5097 98.8087 87.1379 98.2615 87.9509 97.8494C88.7639 97.4373 89.7 97.2036 90.7592 97.1485C91.8373 97.0924 92.7878 97.2278 93.6109 97.5548C94.4386 97.8815 95.0942 98.3618 95.5776 98.9957C96.0611 99.6296 96.3324 100.379 96.3916 101.243L93.4481 101.397Z" fill="#FF3D00"/>
<path d="M90.3356 67.2657L87.327 67.4233L88.1679 83.4694L91.1766 83.3117L90.3356 67.2657Z" fill="#EEEEEE"/>
<path d="M25.0292 80.4687C25.0292 80.4687 25.662 73.1336 26.904 68.2826C28.146 63.4316 30.9347 57.5962 30.9347 57.5962C30.9347 57.5962 29.6927 63.0565 30.3723 66.9706C31.0518 70.8846 33.6532 73.251 33.6532 73.251L25.0292 80.4687Z" fill="#EEEEEE"/>
<path d="M32.7446 64.8717C32.7446 64.8717 37.8291 59.0281 41.3302 55.4479C44.8314 51.8677 50.1642 48.2087 50.1642 48.2087C50.1642 48.2087 46.3585 52.3165 44.9899 56.0459C43.6214 59.7753 44.691 63.1254 44.691 63.1254L32.7446 64.8717Z" fill="#EEEEEE"/>
<path d="M66.8263 36.0215L59.26 36.0339L66.3694 39.4916L73.6095 41.9578L70.2179 38.9896L66.8263 36.0215Z" fill="black"/>
</g>
<defs>
<linearGradient id="paint0_linear_138_17" x1="50.4673" y1="26.4214" x2="90.7802" y2="72.97" gradientUnits="userSpaceOnUse">
<stop stop-color="#FFA200"/>
<stop offset="1" stop-color="#F23A0B"/>
</linearGradient>
<linearGradient id="paint1_linear_138_17" x1="67.7075" y1="76.4196" x2="71.1098" y2="126.407" gradientUnits="userSpaceOnUse">
<stop stop-color="#FF9900"/>
<stop offset="1" stop-color="#F23A0B"/>
</linearGradient>
<linearGradient id="paint2_linear_138_17" x1="70.3365" y1="98.1972" x2="71.5205" y2="126.562" gradientUnits="userSpaceOnUse">
<stop stop-color="#D3392D"/>
<stop offset="1" stop-color="#FF3D00"/>
</linearGradient>
<clipPath id="clip0_138_17">
<rect width="108.978" height="129" fill="white" transform="translate(13)"/>
</clipPath>
</defs>
</svg>
