<?xml version="1.0" encoding="UTF-8" standalone="no"?>
<svg
   viewBox="0 0 536 364"
   fill="none"
   version="1.1"
   id="svg27"
   sodipodi:docname="fux_food_svg.svg"
   xmlns:inkscape="http://www.inkscape.org/namespaces/inkscape"
   xmlns:sodipodi="http://sodipodi.sourceforge.net/DTD/sodipodi-0.dtd"
   xmlns="http://www.w3.org/2000/svg"
   xmlns:svg="http://www.w3.org/2000/svg">
  <sodipodi:namedview
     id="namedview29"
     pagecolor="#ffffff"
     bordercolor="#000000"
     borderopacity="0.25"
     inkscape:showpageshadow="2"
     inkscape:pageopacity="0.0"
     inkscape:pagecheckerboard="0"
     inkscape:deskcolor="#d1d1d1"
     showgrid="false" />
  <g
     clip-path="url(#clip0_159_78)"
     id="g20">
    <path
       d="M 483.679,281.431 H 52.3208 c 4e-4,-7.36 0.372,-14.714 1.1135,-22.037 0.731,-7.183 1.8218,-14.326 3.2683,-21.4 1.422,-6.944 3.2098,-13.893 5.3146,-20.656 2.0813,-6.686 4.5214,-13.348 7.2525,-19.802 21.9258,-51.684 63.0853,-92.815 114.7783,-114.6988 6.458,-2.7294 13.125,-5.1681 19.815,-7.249 6.767,-2.103 13.72,-3.89 20.67,-5.3107 7.079,-1.4451 14.226,-2.5348 21.414,-3.2648 14.665,-1.4837 29.441,-1.4837 44.105,0 7.188,0.731 14.335,1.8215 21.415,3.2675 6.948,1.4211 13.902,3.2077 20.669,5.3107 6.691,2.0798 13.358,4.518 19.816,7.249 51.696,21.8781 92.858,63.0111 114.778,114.6991 2.731,6.454 5.171,13.116 7.252,19.802 2.105,6.762 3.893,13.712 5.315,20.656 1.446,7.074 2.537,14.216 3.268,21.4 0.742,7.321 1.113,14.675 1.114,22.034 z"
       fill="#ffffff"
       id="path2" />
    <path
       d="m 268,40.3152 c 11.237,0 20.347,-9.0248 20.347,-20.1576 C 288.347,9.02487 279.237,0 268,0 c -11.237,0 -20.347,9.02487 -20.347,20.1576 0,11.1328 9.11,20.1576 20.347,20.1576 z"
       fill="#ffffff"
       id="path4" />
    <path
       d="m 272.457,34.5005 h -8.914 v 34.1129 h 8.914 z"
       fill="#ffffff"
       id="path6" />
    <path
       d="m 117.688,250.169 c -3.121,0 -7.327,-0.414 -12.503,-1.232 -4.755,-0.75 -10.289,-4.016 -16.4482,-9.704 0.8007,-5.215 1.8549,-10.45 3.1342,-15.562 1.265,-5.055 2.7812,-10.114 4.5059,-15.036 1.7079,-4.874 3.6631,-9.733 5.8101,-14.443 2.131,-4.672 4.501,-9.309 7.046,-13.785 5.093,-8.94 10.961,-17.416 17.535,-25.33 13.228,-15.903 29.113,-29.391 46.95,-39.863 9.037,-5.306 18.518,-9.816 28.338,-13.478 4.952,-1.8448 10.048,-3.4919 15.149,-4.8948 5.154,-1.418 10.441,-2.6216 15.712,-3.578 5.336,-0.9691 10.789,-1.7056 16.209,-2.1952 5.493,-0.495 11.09,-0.7462 16.638,-0.7462 5.525,0 11.102,0.2492 16.576,0.7408 -86.192,7.7432 -154.221,74.5904 -161.758,158.9494 -0.961,0.112 -1.927,0.165 -2.894,0.157 z"
       fill="#ff3d00"
       id="path8" />
    <path
       opacity="0.1"
       d="m 277.762,65.9685 h 10.394 c 5.844,0.2078 11.671,0.7644 17.449,1.6668 5.72,0.8973 11.383,2.1284 16.959,3.6873 5.566,1.5598 11.039,3.4336 16.394,5.6124 5.382,2.1939 10.64,4.6785 15.753,7.4428 5.167,2.7966 10.186,5.8589 15.037,9.1744 4.851,3.3128 9.644,6.9508 14.247,10.8118 4.58,3.843 9.082,7.999 13.38,12.353 4.286,4.342 8.471,8.985 12.441,13.8 3.969,4.816 7.808,9.908 11.422,15.148 3.62,5.249 7.095,10.767 10.331,16.402 3.248,5.656 6.331,11.563 9.164,17.561 2.85,6.03 5.515,12.295 7.922,18.621 2.426,6.374 4.648,12.964 6.605,19.587 1.977,6.686 3.729,13.568 5.212,20.458 1.5,6.965 2.76,14.11 3.745,21.232 0.995,7.208 1.736,14.579 2.2,21.906 H 391.055 C 387.679,181.839 336.458,95.7296 263.599,67.1597 c 4.68,-0.6241 9.445,-1.0246 14.163,-1.1912 z"
       fill="#000000"
       id="path10" />
    <path
       d="m 87.8335,161.72 c 0,0 -83.41453,185.592 182.0905,50.792 226.845,-99.302 212.31,146.981 212.31,146.981 0,0 -37.505,-65.617 -189.177,-17.528 -15.794,5.006 -50.756,11.097 -50.756,11.097 0,0 -38.971,5.037 -55.201,2.687 C -51.0846,323.849 87.8335,161.72 87.8335,161.72 Z"
       fill="#fe4502"
       id="path14" />
    <path
       d="m 317.203,202.453 c 165.16,-49.156 161.443,144.491 161.443,144.491 0,0 -32.56,-45.561 -146.63,-21.019 -1.44,0.34 2.505,-16.613 11.761,-29.426 8.486,-11.748 22.285,-19.408 22.285,-19.408 0,0 -4.454,-6.448 -17.181,-8.539 -12.726,-2.091 -33.725,0.175 -33.725,0.175 0,0 8.437,-11.929 18.92,-21.015 10.483,-9.085 23.013,-15.334 23.013,-15.334 0,0 -3.118,-8.897 -13.089,-16.378 -9.972,-7.482 -28.997,-12.894 -26.797,-13.547 z"
       fill="#ffffff"
       id="path16" />
    <path
       opacity="0.15"
       d="m 482.231,359.493 c 0,0 -37.505,-65.614 -189.175,-17.528 -15.794,5.007 -51.149,11.146 -51.149,11.146 0,0 -38.579,4.989 -54.808,2.639 -46.859,-6.788 -79.356,-17.344 -101.7295,-32.394 -0.2367,-0.176 -0.687,-0.518 -0.687,-0.518 0,0 65.1275,31.867 165.9485,-13.798 8.618,-3.905 18.274,-7.114 27.465,-12.278 8.742,-3.348 16.386,-7.522 24.64,-10.04 158.874,-48.47 179.495,72.771 179.495,72.771 z"
       fill="#000000"
       id="path18" />
  </g>
  <defs
     id="defs25">
    <clipPath
       id="clip0_159_78">
      <rect
         width="536"
         height="364"
         fill="#ffffff"
         id="rect22"
         x="0"
         y="0" />
    </clipPath>
  </defs>
</svg>
